Coordinates
version=1
nRows=27
nColumns=12
inDegrees=yes

Units are S.I. units (second, meters, Newtons, ...)
Angles are in degrees

endheader
time	SC_y	SC_z	SC_x	AC_y	AC_z	AC_x	GH_y	GH_z	GH_yy	EL_x	PS_y
       0.0               -13.1          28.63          41.41           61.3         -3.289         -16.49          178.2          42.77         -24.03          33.99          116.1
   0.03492              -13.11          28.63          41.41          61.29         -3.287         -16.49          178.2          42.78          -24.0          33.99          116.1
   0.06984              -13.11          28.63          41.42          61.29         -3.285         -16.49          178.2          42.78         -23.97          33.99          116.1
    0.1048              -13.12          28.62          41.42          61.29         -3.283         -16.49          178.2          42.78         -23.94          33.98          116.1
    0.1397              -13.12          28.62          41.43          61.28         -3.281         -16.49          178.2          42.79         -23.91          33.98          116.1
    0.1746              -13.13          28.62          41.44          61.28         -3.278         -16.49          178.1          42.79         -23.88          33.98          116.1
    0.2095              -13.13          28.61          41.45          61.27         -3.276         -16.49          178.1           42.8         -23.84          33.97          116.1
    0.2444              -13.14          28.61          41.45          61.27         -3.273         -16.49          178.1           42.8          -23.8          33.97          116.1
    0.2793              -13.14          28.61          41.46          61.26          -3.27         -16.49          178.0          42.81         -23.76          33.96          116.1
    0.3143              -13.15           28.6          41.47          61.26         -3.267         -16.48          178.0          42.81         -23.72          33.96          116.1
    0.3492              -13.16           28.6          41.48          61.25         -3.264         -16.48          178.0          42.82         -23.67          33.96          116.1
    0.3841              -13.17          28.59          41.49          61.24          -3.26         -16.48          177.9          42.82         -23.62          33.95          116.1
     0.419              -13.17          28.59           41.5          61.24         -3.256         -16.48          177.9          42.83         -23.57          33.95          116.1
    0.4539              -13.18          28.58          41.52          61.23         -3.252         -16.48          177.8          42.84         -23.51          33.94          116.1
    0.4889              -13.19          28.57          41.53          61.22         -3.247         -16.48          177.8          42.85         -23.45          33.93          116.1
    0.5238               -13.2          28.57          41.55          61.21         -3.243         -16.47          177.7          42.85         -23.38          33.93          116.1
    0.5587              -13.22          28.56          41.56           61.2         -3.237         -16.47          177.7          42.86          -23.3          33.92          116.0
    0.5936              -13.23          28.55          41.58          61.19         -3.231         -16.47          177.6          42.87         -23.22          33.91          116.0
    0.6285              -13.24          28.54           41.6          61.18         -3.225         -16.47          177.6          42.89         -23.13           33.9          116.0
    0.6634              -13.26          28.53          41.62          61.17         -3.218         -16.46          177.5           42.9         -23.03          33.89          116.0
    0.6984              -13.27          28.52          41.64          61.16          -3.21         -16.46          177.4          42.91         -22.93          33.88          116.0
    0.7333              -13.29          28.51          41.67          61.14         -3.202         -16.46          177.3          42.93         -22.81          33.87          116.0
    0.7682              -13.31           28.5           41.7          61.12         -3.193         -16.45          177.2          42.94         -22.68          33.86          116.0
    0.8031              -13.33          28.48          41.73          61.11         -3.182         -16.45          177.1          42.96         -22.54          33.84          115.9
     0.838              -13.36          28.46          41.76          61.09         -3.171         -16.44          177.0          42.98         -22.38          33.83          115.9
     0.873              -13.39          28.45           41.8          61.06         -3.158         -16.44          176.8           43.0          -22.2          33.81          115.9
    0.9079              -13.42          28.43          41.85          61.04         -3.144         -16.43          176.7          43.03          -22.0          33.79          115.9
